<svg id="Layer_1" data-name="Layer 1" xmlns="http://www.w3.org/2000/svg" viewBox="0 0 365 426">
  <defs>
    <style>
      .cls-1 {
        fill: #63a088;
      }
    </style>
  </defs>
  <title>BaatoNoText</title>
  <g>
    <path class="cls-1" d="M279.63025,225.06689a95.57629,95.57629,0,0,1-17.03076,39.13318c-17.046,23.157-55.827,49.30225-115.26306,77.7063-35.10975,16.77649-67.42151,29.41638-79.28,33.92468H234.48267a82.14153,82.14153,0,0,0,45.14758-150.76416Z"/>
    <path class="cls-1" d="M147.57043,182.47168a44.638,44.638,0,1,0,80.48719,29.06543h.00006a44.61807,44.61807,0,0,0-80.48725-29.06543Z"/>
    <path class="cls-1" d="M79.18121,211.53711c7.49359-25.82739,16.8653-46.46045,28.06037-61.66406a96.30744,96.30744,0,0,1,134.514-20.439l.35993.26148a96.0072,96.0072,0,0,1,38.63763,67.57031A82.1427,82.1427,0,0,0,234.48273,47.252H60.05365V211.53711h.00006v122.1543c.83667-13.43067,2.15894-29.27039,4.24878-46.08277q5.40234-43.43994,14.87866-76.07153Z"/>
  </g>
</svg>
